<svg height="478pt" viewBox="0 -2 478.20356 478" width="478pt" xmlns="http://www.w3.org/2000/svg"><path d="m196.441406 318.714844c-8.445312 8.445312-13.351562 19.648437-13.496094 30.839844l-.257812 19.625c-.128906 9.832031 3.421875 18.902343 9.96875 25.453124l38.6875 38.683594 2.441406 2.441406c3.238282 3.238282 8.835938 2.890626 12.507813-.78125l16.96875-16.96875c1.589843-1.589843 2.820312-3.488281 3.589843-5.542968l8.800782-23.457032-74.75-74.753906zm0 0" fill="#f9a7a7"/><path d="m239.300781 441.976562c-3.207031 0-6.144531-1.191406-8.347656-3.390624l-41.125-41.128907c-7.332031-7.328125-11.289063-17.390625-11.144531-28.328125l.257812-19.625c.164063-12.207031 5.507813-24.457031 14.667969-33.617187l4.460937-4.460938c1.558594-1.5625 4.09375-1.5625 5.65625 0l74.75 74.753907c1.109376 1.109374 1.46875 2.761718.917969 4.230468l-8.800781 23.457032c-.964844 2.570312-2.519531 4.980468-4.503906 6.964843l-16.972656 16.972657c-2.460938 2.460937-5.660157 3.9375-8.996094 4.144531-.273438.019531-.546875.027343-.820313.027343zm-38.402343-122.066406-1.628907 1.628906c-7.699219 7.703126-12.191406 17.929688-12.324219 28.066407l-.257812 19.625c-.117188 8.765625 3.007812 16.78125 8.796875 22.570312l41.128906 41.128907c1 1.003906 2.320313 1.082031 3.011719 1.035156 1.390625-.085938 2.753906-.730469 3.839844-1.816406l16.96875-16.96875c1.179687-1.183594 2.105468-2.609376 2.667968-4.117188l7.898438-21.050781zm-4.460938-1.195312h.019531zm0 0" fill="#3762cc"/><path d="m368.8125 183.050781-19.625.257813c-11.191406.144531-22.394531 5.046875-30.839844 13.496094l-4.457031 4.457031 74.75 74.753906 23.457031-8.800781c2.054688-.769532 3.953125-2 5.542969-3.589844l16.96875-16.96875c3.667969-3.667969 4.019531-9.269531.785156-12.507812l-41.128906-41.128907c-6.546875-6.546875-15.617187-10.097656-25.453125-9.96875zm0 0" fill="#f9a7a7"/><path d="m388.644531 280.015625c-1.042969 0-2.066406-.40625-2.832031-1.171875l-74.75-74.75c-.75-.75-1.171875-1.769531-1.171875-2.828125 0-1.0625.421875-2.078125 1.171875-2.828125l4.457031-4.457031c9.160157-9.164063 21.414063-14.507813 33.617188-14.667969l19.625-.261719c10.996093-.121093 21 3.8125 28.332031 11.140625l41.128906 41.128906c2.386719 2.386719 3.582032 5.644532 3.363282 9.171876-.210938 3.335937-1.683594 6.53125-4.148438 8.992187l-16.964844 16.96875c-1.980468 1.980469-4.390625 3.539063-6.964844 4.503906l-23.460937 8.800781c-.457031.175782-.933594.257813-1.402344.257813zm-69.097656-78.75 70.101563 70.101563 21.046874-7.894532c1.511719-.570312 2.9375-1.492187 4.121094-2.671875l16.964844-16.96875c1.085938-1.085937 1.734375-2.449219 1.820312-3.839843.042969-.695313-.035156-2.011719-1.035156-3.015626l-41.128906-41.125c-5.789062-5.789062-13.824219-8.917968-22.570312-8.796874l-19.625.257812c-10.136719.132812-20.367188 4.625-28.066407 12.324219zm0 0" fill="#3762cc"/><path d="m229.402344 92.046875c-17.332032-16.757813-40.789063-32.550781-58.808594-43.59375-8.304688-5.445313-16.925781-10.398437-25.820312-14.871094-.777344-.417969-1.214844-.644531-1.214844-.644531l.066406.078125c-30.042969-14.933594-63.199219-24.3125-98.101562-27.527344l-17.9375-1.328125c-6.039063-.445312-12.296876 2-16.914063 6.617188-4.617187 4.621094-7.066406 10.878906-6.621094 16.914062l1.332031 17.9375c3.214844 34.90625 12.597657 68.070313 27.535157 98.117188l-.085938-.082032c21.679688 48.441407 59.105469 85.84375 59.105469 85.84375 23.316406 26.457032 62.957031 64.128907 130.308594 116.652344l53.402344 42.847656 113.253906-113.253906-42.847656-53.402344c-52.527344-67.351562-90.199219-106.992187-116.652344-130.304687zm0 0" fill="#4671c6"/><path d="m207.011719 142.578125c0 35.789063-29.011719 64.800781-64.800781 64.800781-35.785157 0-64.796876-29.011718-64.796876-64.800781s29.011719-64.800781 64.796876-64.800781c35.789062 0 64.800781 29.011718 64.800781 64.800781zm0 0" fill="#a4c9ff"/><path d="m185.414062 142.578125c0 23.859375-19.34375 43.199219-43.203124 43.199219-23.855469 0-43.199219-19.339844-43.199219-43.199219s19.34375-43.199219 43.199219-43.199219c23.859374 0 43.203124 19.339844 43.203124 43.199219zm0 0" fill="#e0ebfc"/><path d="m371.035156 455.410156c15.109375 9.566406 34.855469 13.859375 41.707032 15.128906 1.199218.222657 2.25-.839843 2.023437-2.042968-3.964844-21.101563-10.40625-29.613282-14.195313-32.925782-.65625-.570312-.167968-1.640624.691407-1.523437 33.476562 4.640625 60.382812 21.140625 70.214843 27.871094 1.34375.921875 3.097657-.351563 2.652344-1.917969l-.265625-.933594c-1.640625-5.742187-2.984375-22.785156-2.984375-22.785156-8.726562-95.796875-56.621094-96.257812-56.621094-96.257812l-.003906.011718c-20.378906-5.601562-43.839844.332032-60.355468 17.515625-19.035157 19.804688-22.804688 48.949219-10.578126 70.8125l-.011718.007813c7.671875 15.242187 27.726562 27.039062 27.726562 27.039062zm0 0" fill="#f9a7a7"/><path d="m365.359375 417.667969c9.304687 5.878906 21.46875 8.507812 25.691406 9.28125.738281.136719 1.386719-.519531 1.25-1.257813-2.421875-13.003906-6.382812-18.246094-8.714843-20.28125-.402344-.351562-.101563-1.011718.429687-.941406 20.628906 2.828125 37.195313 12.96875 43.25 17.109375.828125.566406 1.910156-.222656 1.636719-1.183594l-.164063-.578125c-1.003906-3.539062-1.816406-14.042968-1.816406-14.042968-5.277344-59.039063-34.800781-59.273438-34.800781-59.273438l-.003906.007812c-12.550782-3.433593-27.019532.25-37.21875 10.855469-11.753907 12.230469-14.105469 30.195313-6.59375 43.660157l-.007813.003906c4.710937 9.390625 17.0625 16.640625 17.0625 16.640625zm0 0" fill="#ffea92"/><path d="m76.417969 10.101562c-10.125-2.0625-20.417969-3.648437-30.894531-4.613281l-17.9375-1.328125c-6.039063-.445312-12.296876 2-16.914063 6.617188-4.617187 4.621094-7.066406 10.878906-6.621094 16.914062l1.332031 17.9375c.964844 10.476563 2.550782 20.769532 4.613282 30.894532zm0 0" fill="#f9a7a7"/><path d="m275.648438 393.003906c-.882813 0-1.769532-.289062-2.5-.878906l-53.402344-42.84375c-58.394532-45.539062-102.363282-84.890625-130.632813-116.933594-1.15625-1.039062-2.949219-3.011718-6.332031-6.761718-3.550781-3.9375-9.109375-10.320313-15.414062-18.367188-11.148438-14.234375-26.820313-36.53125-38.183594-61.921875-.054688-.125-.101563-.246094-.144532-.371094-15.113281-30.589843-24.410156-63.871093-27.636718-98.929687l-1.3359378-18.007813c-.5390622-7.25 2.2968748-14.554687 7.7773438-20.039062 5.480469-5.480469 12.777344-8.332031 20.039062-7.78125l17.9375 1.332031c35.132813 3.230469 68.417969 12.53125 99.007813 27.644531.195313.0625.386719.144531.578125.242188l1.25.664062c8.984375 4.515625 17.804688 9.59375 26.128906 15.050781 17.148438 10.507813 41.457032 26.734376 59.347656 44.019532 32.066407 28.269531 71.453126 72.265625 117.074219 130.769531l42.8125 53.359375c1.273438 1.589844 1.152344 3.886719-.292969 5.332031l-113.25 113.25c-.777343.777344-1.800781 1.171875-2.828124 1.171875zm-238.882813-250.347656c21.175781 46.921875 57.632813 83.652344 58 84.019531.0625.0625.117187.125.175781.1875 27.941406 31.707031 71.601563 70.785157 129.765625 116.144531l50.652344 40.632813 108.179687-108.179687-40.601562-50.605469c-45.398438-58.210938-84.472656-101.871094-116.179688-129.808594-.046874-.042969-.089843-.085937-.136718-.128906-17.371094-16.792969-41.191406-32.683594-58.113282-43.054688-8.175781-5.359375-16.730468-10.285156-25.527343-14.707031l-.730469-.386719c-.136719-.046875-.269531-.109375-.402344-.171875-29.859375-14.84375-62.390625-23.964844-96.6875-27.125l-17.867187-1.324218c-4.863281-.367188-10.011719 1.679687-13.789063 5.457031-3.777344 3.78125-5.820312 8.933593-5.460937 13.792969l1.332031 17.933593c3.152344 34.230469 12.28125 66.765625 27.128906 96.632813.105469.226562.195313.457031.261719.691406zm0 0" fill="#3762cc"/><path d="m263.296875 256.535156c-1.859375-.917968-4.261719-.417968-5.902344 1.226563-1.644531 1.644531-2.140625 4.042969-1.226562 5.902343l10.292969 20.90625c4.980468 10.109376 11.507812 19.242188 19.382812 27.117188l36.003906 36.003906c3.238282 3.238282 8.835938 2.890625 12.507813-.78125l12.183593-12.183594c3.671876-3.671874 4.023438-9.273437.785157-12.511718l-36.003907-36.003906c-7.875-7.875-17.007812-14.402344-27.117187-19.378907zm0 0" fill="#f9a7a7"/><g fill="#3762cc"><path d="m327.382812 353.898438c-3.097656 0-6.101562-1.117188-8.363281-3.378907l-36.003906-36.003906c-8.191406-8.191406-14.964844-17.671875-20.140625-28.175781l-10.292969-20.90625c-1.679687-3.414063-.882812-7.632813 1.984375-10.503906 2.871094-2.863282 7.089844-3.660157 10.5-1.984376l20.90625 10.296876c10.503906 5.171874 19.984375 11.949218 28.175782 20.140624l36.003906 36.003907c4.792968 4.789062 4.441406 12.941406-.785156 18.164062l-12.183594 12.1875c-2.757813 2.757813-6.332032 4.160157-9.800782 4.160157zm-66.085937-93.820313c-.289063 0-.710937.144531-1.074219.511719-.484375.484375-.582031 1.070312-.464844 1.308594l10.292969 20.90625c4.785157 9.714843 11.050781 18.484374 18.621094 26.054687l36.003906 36.003906c1.671875 1.671875 4.75 1.320313 6.851563-.785156l12.183594-12.183594c2.070312-2.070312 2.429687-5.210937.785156-6.855469l-36.003906-36.003906c-7.570313-7.570312-16.335938-13.835937-26.054688-18.621094l-20.90625-10.292968c-.054688-.027344-.136719-.042969-.234375-.042969zm0 0"/><path d="m413.054688 474.566406c-.347657 0-.695313-.03125-1.042969-.09375-7.78125-1.445312-27.523438-5.851562-43.015625-15.625-1.007813-.597656-21.183594-12.632812-29.261719-28.679687-.027344-.050781-.050781-.105469-.074219-.15625-13.089844-23.746094-8.445312-54.632813 11.355469-75.234375 16.890625-17.574219 41.292969-24.730469 63.804687-18.734375 5.738282.3125 51.472657 5.800781 60.042969 99.875.371094 4.679687 1.589844 17.65625 2.84375 22.046875l.269531.9375c.671876 2.355468-.179687 4.800781-2.164062 6.234375-1.984375 1.433593-4.574219 1.460937-6.59375.082031-8.929688-6.113281-31.632812-20.046875-60.363281-25.828125 3.578125 5.699219 7.25 14.566406 9.839843 28.367187.351563 1.863282-.242187 3.777344-1.582031 5.125-1.085937 1.085938-2.550781 1.683594-4.058593 1.683594zm.414062-7.960937h.019531zm-66.449219-39.753907c7.171875 13.898438 25.855469 24.996094 26.042969 25.109376.039062.023437.078125.042968.113281.066406 12.609375 7.984375 28.957031 12.203125 37 13.917968-3.792969-17.738281-9.230469-24.730468-12.238281-27.363281-1.636719-1.433593-2.128906-3.71875-1.230469-5.695312.902344-1.972657 2.941407-3.097657 5.105469-2.804688 29.886719 4.148438 54.625 17.472657 67.226562 25.445313-1.199218-7.15625-2.035156-17.507813-2.148437-18.933594-7.992187-87.730469-49.640625-92.351562-52.546875-92.5625-.367188.035156-.765625-.035156-1.152344-.136719-19.820312-5.457031-41.433594.847657-56.414062 16.429688-17.464844 18.171875-21.566406 45.351562-9.96875 66.089843.082031.140626.148437.289063.210937.4375zm0 0"/></g></svg>